# xmcd
#
# Track frame offsets: 
#        150
#        12160
#        22628
#        37844
#        46996
#        59557
#        72808
#        84829
#        98145
#        109276
#        120022
#        131909
#        144484
#        157007
#        171628
#        184622
#        197924
#        208993
#        227108
#        240387
#
# Disc length: 3361 seconds
#
# Revision: 0
# Processed by: cddbd v1.5.2PL0 Copyright (c) Steve Scherf et al.
# Submitted via: ExactAudioCopy v1.0b1
#
DISCID=0c0d1f14
DTITLE=Steve Mancha - Detroit Soulman
DYEAR=2000
DGENRE=R&B
TTITLE0=Did My Baby Call
TTITLE1=Whirlpool
TTITLE2=Hate Yourself In The Morning
TTITLE3=A Love Like Yours
TTITLE4=She's So Good
TTITLE5=You're Still In My Heart
TTITLE6=I Don't Want To Lose You
TTITLE7=Need To Be Needed
TTITLE8=Friday Night
TTITLE9=Monday Through Thursday
TTITLE10=Don't Make Me A Story Teller
TTITLE11=I Won't Love And Leave You
TTITLE12=Just Keep On Loving Me
TTITLE13=Sweet Baby Don't Ever Be Untrue
TTITLE14=Easy Living
TTITLE15=Let's Party
TTITLE16=Deeper In Love
TTITLE17=Your Love Got Sweeter
TTITLE18=Souvenirs
TTITLE19=Think Before You Walk Away
EXTD=
EXTT0=
EXTT1=
EXTT2=
EXTT3=
EXTT4=
EXTT5=
EXTT6=
EXTT7=
EXTT8=
EXTT9=
EXTT10=
EXTT11=
EXTT12=
EXTT13=
EXTT14=
EXTT15=
EXTT16=
EXTT17=
EXTT18=
EXTT19=
PLAYORDER=
